<svg width="250" height="250" viewBox="0 0 250 250" fill="none" xmlns="http://www.w3.org/2000/svg">
<g clip-path="url(#clip0_899_19)">
<path opacity="0.55" d="M0 0H250" stroke="#B3B3B3" stroke-width="3" stroke-linecap="round" stroke-dasharray="2 8"/>
<path opacity="0.45" d="M0 88.5234L249.995 89.4372" stroke="#B3B3B3" stroke-width="2" stroke-linecap="round" stroke-dasharray="1 6"/>
<path d="M87.1874 10.9946H29.866C21.9516 10.9946 15.5356 14.6865 15.5356 19.2407V222.643C15.5356 227.197 21.9516 230.889 29.866 230.889H87.1874C95.1019 230.889 101.518 227.197 101.518 222.643V19.2407C101.518 14.6865 95.1019 10.9946 87.1874 10.9946Z" stroke="#B3B3B3" stroke-width="6" stroke-linejoin="round"/>
<path d="M216.161 10.9946H158.839C150.925 10.9946 144.509 14.6865 144.509 19.2407V222.643C144.509 227.197 150.925 230.889 158.839 230.889H216.161C224.075 230.889 230.491 227.197 230.491 222.643V19.2407C230.491 14.6865 224.075 10.9946 216.161 10.9946Z" stroke="#B3B3B3" stroke-width="6" stroke-linejoin="round"/>
<path d="M75.2453 109.948H41.8078C37.8505 109.948 34.6426 111.793 34.6426 114.071V215.772C34.6426 218.049 37.8505 219.895 41.8078 219.895H75.2453C79.2025 219.895 82.4104 218.049 82.4104 215.772V114.071C82.4104 111.793 79.2025 109.948 75.2453 109.948Z" fill="#B3B3B3"/>
<path d="M204.218 109.948H170.781C166.824 109.948 163.616 111.793 163.616 114.071V215.772C163.616 218.049 166.824 219.895 170.781 219.895H204.218C208.176 219.895 211.384 218.049 211.384 215.772V114.071C211.384 111.793 208.176 109.948 204.218 109.948Z" fill="#B3B3B3"/>
</g>
<defs>
<clipPath id="clip0_899_19">
<rect width="250" height="250" fill="white"/>
</clipPath>
</defs>
</svg>
