<svg width="48" height="48" viewBox="0 0 48 48" fill="none" xmlns="http://www.w3.org/2000/svg">
<path d="M42.6667 22.6434H36C35.6984 22.6432 35.4056 22.7471 35.1695 22.9382C34.9334 23.1292 34.7679 23.3961 34.7 23.6952L32.2667 34.4502L27.984 6.15192C27.9361 5.8348 27.7794 5.54521 27.5417 5.33453C27.3039 5.12385 27.0005 5.00572 26.6853 5.0011C26.3675 4.98788 26.0559 5.09412 25.8101 5.29958C25.5642 5.50505 25.4012 5.79538 25.352 6.11528L21.128 29.7805L17.2933 14.171C17.2245 13.89 17.0691 13.6388 16.8499 13.4541C16.6306 13.2694 16.3591 13.161 16.075 13.1446C15.7909 13.1282 15.5091 13.2048 15.2708 13.3631C15.0326 13.5214 14.8503 13.7532 14.7507 14.0245L11.076 24.0006H5.33333C4.97971 24.0006 4.64057 24.1435 4.39052 24.398C4.14048 24.6525 4 24.9977 4 25.3577C4 25.7176 4.14048 26.0628 4.39052 26.3173C4.64057 26.5718 4.97971 26.7148 5.33333 26.7148H12C12.2716 26.7149 12.5368 26.6307 12.76 26.4733C12.9833 26.3159 13.154 26.0928 13.2493 25.834L15.7453 19.058L20.04 36.5443C20.1145 36.8445 20.2877 37.1098 20.5308 37.296C20.7739 37.4822 21.0723 37.5783 21.3764 37.5681C21.6805 37.558 21.972 37.4423 22.2026 37.2402C22.4332 37.0382 22.5889 36.762 22.644 36.4574L26.5573 14.5578L30.6827 41.8492C30.7296 42.1611 30.8819 42.4467 31.1133 42.6568C31.3447 42.8668 31.6408 42.9882 31.9507 43H32C32.3016 43.0002 32.5944 42.8963 32.8305 42.7053C33.0666 42.5142 33.2321 42.2474 33.3 41.9482L37.0667 25.3577H42.6667C43.0203 25.3577 43.3594 25.2147 43.6095 24.9602C43.8595 24.7057 44 24.3605 44 24.0006C44 23.6406 43.8595 23.2954 43.6095 23.0409C43.3594 22.7864 43.0203 22.6434 42.6667 22.6434Z" fill="#B3B3B3"/>
</svg>
