<svg width="38" height="38" viewBox="0 0 38 38" fill="none" xmlns="http://www.w3.org/2000/svg">
<g clip-path="url(#clip0_920_126)">
<path d="M34.4375 0H3.5625C1.59496 0 0 1.59496 0 3.5625V34.4375C0 36.405 1.59496 38 3.5625 38H34.4375C36.405 38 38 36.405 38 34.4375V3.5625C38 1.59496 36.405 0 34.4375 0ZM8.3125 35.625H3.5625C2.90663 35.625 2.375 35.0934 2.375 34.4375V3.5625C2.375 2.90663 2.90663 2.375 3.5625 2.375H5.9375V20.1875C5.9375 20.8434 6.46913 21.375 7.125 21.375H8.3125V35.625ZM17.8125 35.625H10.6875V21.375H11.875C12.5309 21.375 13.0625 20.8434 13.0625 20.1875V2.375H15.4375V20.1875C15.4375 20.8434 15.9691 21.375 16.625 21.375H17.8125V35.625ZM27.3125 35.625H20.1875V21.375H21.375C22.0309 21.375 22.5625 20.8434 22.5625 20.1875V2.375H24.9375V20.1875C24.9375 20.8434 25.4691 21.375 26.125 21.375H27.3125V35.625ZM35.625 34.4375C35.625 35.0934 35.0934 35.625 34.4375 35.625H29.6875V21.375H30.875C31.5309 21.375 32.0625 20.8434 32.0625 20.1875V2.375H34.4375C35.0934 2.375 35.625 2.90663 35.625 3.5625V34.4375Z" fill="#B3B3B3"/>
</g>
<defs>
<clipPath id="clip0_920_126">
<rect width="38" height="38" fill="white"/>
</clipPath>
</defs>
</svg>
