<svg width="512" height="512" viewBox="0 0 512 512" fill="none" xmlns="http://www.w3.org/2000/svg">
<path d="M111.745 178.21C114.572 178.21 116.865 175.92 116.865 173.09V147.54H395.135V173.09C395.135 175.92 397.427 178.21 400.255 178.21C403.082 178.21 405.375 175.92 405.375 173.09V111.745C405.375 108.915 403.082 106.625 400.255 106.625C397.427 106.625 395.135 108.915 395.135 111.745V137.3H116.865V111.745C116.865 108.915 114.572 106.625 111.745 106.625C108.917 106.625 106.625 108.915 106.625 111.745V173.09C106.625 175.92 108.917 178.21 111.745 178.21Z" fill="#B3B3B3"/>
<path d="M111.745 291.795C114.572 291.795 116.865 289.505 116.865 286.675V261.12H395.135V286.675C395.135 289.505 397.427 291.795 400.255 291.795C403.082 291.795 405.375 289.505 405.375 286.675V225.325C405.375 222.495 403.082 220.205 400.255 220.205C397.427 220.205 395.135 222.495 395.135 225.325V250.88H116.865V225.325C116.865 222.495 114.572 220.205 111.745 220.205C108.917 220.205 106.625 222.495 106.625 225.325V286.675C106.625 289.505 108.917 291.795 111.745 291.795Z" fill="#B3B3B3"/>
<path d="M111.745 405.375C114.572 405.375 116.865 403.085 116.865 400.255V374.7H395.135V400.255C395.135 403.085 397.427 405.375 400.255 405.375C403.082 405.375 405.375 403.085 405.375 400.255V338.91C405.375 336.08 403.082 333.79 400.255 333.79C397.427 333.79 395.135 336.08 395.135 338.91V364.46H116.865V338.91C116.865 336.08 114.572 333.79 111.745 333.79C108.917 333.79 106.625 336.08 106.625 338.91V400.255C106.625 403.085 108.917 405.375 111.745 405.375Z" fill="#B3B3B3"/>
<path d="M455.68 51.2H56.32C53.4925 51.2 51.2 53.49 51.2 56.32V455.68C51.2 458.51 53.4925 460.8 56.32 460.8H455.68C458.508 460.8 460.8 458.51 460.8 455.68V56.32C460.8 53.49 458.508 51.2 455.68 51.2ZM450.56 450.56H61.44V61.44H450.56V450.56Z" fill="#B3B3B3"/>
</svg>
