<svg width="231" height="208" viewBox="0 0 231 208" fill="none" xmlns="http://www.w3.org/2000/svg">
<path d="M102.923 207.551C87.2296 205.4 74.9939 202.088 63.4559 196.868C30.2411 181.841 7.74738 154.277 1.38451 120.806C-0.84707 109.067 -0.335192 92.1483 2.58951 80.9778C7.93154 60.5747 17.5964 44.8427 33.6849 30.3622C47.4211 17.9988 61.1373 10.3556 79.3724 4.903C93.4876 0.682351 102.344 -0.384727 119.127 0.113022C134.282 0.562475 139.463 1.36357 152.317 5.24464C169.324 10.3798 183.576 18.424 196.805 30.3548C218.666 50.0705 230.576 75.8692 230.562 103.475C230.535 153.343 192.682 195.436 138.471 205.882C130.961 207.329 108.869 208.366 102.923 207.551ZM122.692 116.215C127.379 113.427 127.963 111.73 127.969 100.892L127.974 91.0246H124.856H121.738L121.476 100.419C121.229 109.285 121.108 109.89 119.336 111.183C116.913 112.952 114.073 112.927 112.068 111.118C110.641 109.83 110.478 108.726 110.478 100.354V91.0246H106.809H103.14L103.441 100.941C103.775 111.904 104.397 113.57 109.129 116.173C112.542 118.051 119.57 118.073 122.692 116.215ZM158.204 116.051C161.593 114.332 162.967 112.186 162.967 108.613C162.967 105.104 160.286 102.731 154.219 100.866C150.114 99.6046 148.997 98.9438 148.795 97.6582C148.468 95.5806 151.254 94.5405 154.609 95.4881C155.925 95.86 157.57 96.3234 158.264 96.518C159.03 96.7327 160.053 96.1459 160.867 95.0243C162.189 93.204 162.17 93.1558 159.605 91.7446C154.71 89.0513 145.239 90.2632 143.108 93.8554C142.658 94.6148 142.289 96.5054 142.289 98.0569C142.289 102.018 144.616 104.395 149.83 105.763C154.471 106.981 156.089 108.202 155.668 110.172C155.175 112.481 151.613 112.961 147.752 111.237L144.3 109.695L142.401 111.409C140.105 113.481 140.604 114.411 144.972 116.201C149.379 118.006 154.462 117.949 158.204 116.051ZM46.0596 111.836V106.812H50.8314H55.6031V104.301V101.789H50.8314H46.0596V98.9185V96.048H52.4219H58.7842V93.5363V91.0246H48.8431H38.9021V103.942V116.859H42.4808H46.0596V111.836ZM72.645 115.732C74.2373 114.295 74.2217 113.351 72.5786 111.713C70.2238 109.365 66.7372 110.509 66.7372 113.63C66.7372 116.652 70.2428 117.899 72.645 115.732ZM90.4366 115.998C92.5227 114.116 91.021 110.401 88.1741 110.401C87.4545 110.401 86.2167 111.048 85.4234 111.839C82.4947 114.759 87.3478 118.785 90.4366 115.998ZM190.007 106.454V96.048H194.381H198.755V93.5363V91.0246H186.03H173.306V93.5363V96.048H178.077H182.849V106.454V116.859H186.428H190.007V106.454ZM76.2321 103.805C78.6057 96.6562 78.6673 96.6278 80.6131 101.789L82.3717 106.454L85.6884 106.674C87.5126 106.796 88.989 106.634 88.9693 106.315C88.9494 105.997 87.6049 102.507 85.9811 98.5597L83.0288 91.3834H79.0955H75.1622L72.1448 98.5597C70.4853 102.507 69.1265 105.978 69.1252 106.274C69.124 106.57 70.4978 106.812 72.1782 106.812C75.0769 106.812 75.2847 106.658 76.2321 103.805Z" fill="#D9D9D9"/>
</svg>
