<svg width="160" height="28" viewBox="0 0 160 28" fill="none" xmlns="http://www.w3.org/2000/svg">
<path d="M83.7904 25.9333C88.4769 23.1452 89.0611 21.4487 89.0669 10.6104L89.0719 0.743033H85.9539H82.836L82.574 10.1372C82.3267 19.0034 82.2064 19.6085 80.4344 20.9017C78.0105 22.6706 75.1705 22.6452 73.1661 20.8366C71.7387 19.5486 71.5756 18.4445 71.5756 10.0722V0.743049H67.9065H64.2375L64.5392 10.6595C64.8729 21.6221 65.4949 23.288 70.227 25.8916C73.64 27.7694 80.6677 27.791 83.7904 25.9333ZM119.302 25.7694C122.691 24.0507 124.065 21.9048 124.065 18.3312C124.065 14.8228 121.384 12.4492 115.317 10.5844C111.212 9.32302 110.095 8.66222 109.892 7.37665C109.566 5.29903 112.352 4.25891 115.707 5.20655C117.023 5.57839 118.668 6.0418 119.362 6.23637C120.128 6.45114 121.151 5.86434 121.965 4.74267C123.287 2.92238 123.268 2.87417 120.703 1.463C115.808 -1.23025 106.337 -0.0184064 104.206 3.5738C103.756 4.33315 103.387 6.22385 103.387 7.77535C103.387 11.7361 105.714 14.1137 110.928 15.4815C115.569 16.699 117.187 17.9204 116.766 19.8903C116.273 22.1998 112.711 22.6789 108.85 20.955L105.398 19.4138L103.499 21.127C101.203 23.199 101.702 24.1291 106.07 25.919C110.476 27.7245 115.56 27.667 119.302 25.7694ZM7.15759 21.5542V16.5309H11.9293H16.701V14.0191V11.5075H11.9293H7.15759V8.63694V5.76643H13.5199H19.8822V3.25473V0.743033H9.94107H0V13.6603V26.5776H3.57877H7.15759V21.5542ZM33.7429 25.45C35.3352 24.0131 35.3196 23.0698 33.6765 21.4313C31.3217 19.0834 27.8351 20.2276 27.8351 23.3483C27.8351 26.3703 31.3408 27.6175 33.7429 25.45ZM51.5345 25.7165C53.6206 23.8341 52.1189 20.119 49.272 20.119C48.5524 20.119 47.3147 20.7662 46.5214 21.5572C43.5927 24.4773 48.4457 28.5037 51.5345 25.7165ZM151.104 16.172V5.76643H155.479H159.853V3.25473V0.743033H147.128H134.404V3.25473V5.76643H139.175H143.947V16.172V26.5776H147.526H151.104V16.172ZM37.33 13.5233C39.7036 6.3746 39.7652 6.34626 41.7111 11.5075L43.4696 16.172L46.7864 16.3927C48.6106 16.5141 50.0869 16.3526 50.0672 16.0339C50.0473 15.7152 48.7028 12.2251 47.079 8.27813L44.1267 1.10185H40.1934H36.2601L33.2428 8.27813C31.5832 12.2251 30.2244 15.6966 30.2231 15.9926C30.2219 16.2886 31.5958 16.5309 33.2762 16.5309C36.1748 16.5309 36.3826 16.3767 37.33 13.5233Z" fill="#D9D9D9"/>
</svg>
