<svg width="48" height="48" viewBox="0 0 48 48" fill="none" xmlns="http://www.w3.org/2000/svg">
<path d="M12.8889 16.8V12H44V16.8H12.8889ZM12.8889 26.4V21.6H44V26.4H12.8889ZM12.8889 36V31.2H44V36H12.8889ZM6.22222 16.8C5.59259 16.8 5.06481 16.57 4.63889 16.11C4.21296 15.65 4 15.08 4 14.4C4 13.72 4.21296 13.15 4.63889 12.69C5.06481 12.23 5.59259 12 6.22222 12C6.85185 12 7.37963 12.23 7.80556 12.69C8.23148 13.15 8.44444 13.72 8.44444 14.4C8.44444 15.08 8.23148 15.65 7.80556 16.11C7.37963 16.57 6.85185 16.8 6.22222 16.8ZM6.22222 26.4C5.59259 26.4 5.06481 26.17 4.63889 25.71C4.21296 25.25 4 24.68 4 24C4 23.32 4.21296 22.75 4.63889 22.29C5.06481 21.83 5.59259 21.6 6.22222 21.6C6.85185 21.6 7.37963 21.83 7.80556 22.29C8.23148 22.75 8.44444 23.32 8.44444 24C8.44444 24.68 8.23148 25.25 7.80556 25.71C7.37963 26.17 6.85185 26.4 6.22222 26.4ZM6.22222 36C5.59259 36 5.06481 35.77 4.63889 35.31C4.21296 34.85 4 34.28 4 33.6C4 32.92 4.21296 32.35 4.63889 31.89C5.06481 31.43 5.59259 31.2 6.22222 31.2C6.85185 31.2 7.37963 31.43 7.80556 31.89C8.23148 32.35 8.44444 32.92 8.44444 33.6C8.44444 34.28 8.23148 34.85 7.80556 35.31C7.37963 35.77 6.85185 36 6.22222 36Z" fill="#B3B3B3"/>
</svg>
