<svg width="41" height="42" viewBox="0 0 41 42" fill="none" xmlns="http://www.w3.org/2000/svg">
<path d="M9.40521 31.6882C9.18224 31.471 9.17984 31.1134 9.39987 30.8932L30.8096 9.46365C31.0258 9.24728 31.3757 9.24493 31.5948 9.45837C31.8178 9.67563 31.8202 10.0332 31.6001 10.2534L10.1904 31.683C9.97422 31.8993 9.62427 31.9017 9.40521 31.6882Z" fill="#B3B3B3"/>
<path d="M10.4609 4C11.0132 4 11.4609 4.44772 11.4609 5V13.1818C11.4609 13.7341 11.0132 14.1818 10.4609 14.1818H10C9.44772 14.1818 9 13.7341 9 13.1818V5C9 4.44771 9.44772 4 10 4H10.4609Z" fill="#B3B3B3"/>
<path d="M36.7195 32.2301C36.7195 33.3504 36.504 34.3 36.0732 35.0788C35.6423 35.8577 35.0589 36.4493 34.3232 36.8537C33.5907 37.2581 32.7687 37.4602 31.8572 37.4602C30.9425 37.4602 30.1188 37.2564 29.3864 36.8487C28.6539 36.4411 28.0722 35.8494 27.6413 35.0739C27.2138 34.295 27 33.3471 27 32.2301C27 31.1098 27.2138 30.1603 27.6413 29.3814C28.0722 28.6025 28.6539 28.0109 29.3864 27.6065C30.1188 27.2022 30.9425 27 31.8572 27C32.7687 27 33.5907 27.2022 34.3232 27.6065C35.0589 28.0109 35.6423 28.6025 36.0732 29.3814C36.504 30.1603 36.7195 31.1098 36.7195 32.2301ZM34.2038 32.2301C34.2038 31.5672 34.1094 31.0071 33.9205 30.5497C33.7348 30.0923 33.4664 29.746 33.1151 29.5107C32.767 29.2753 32.3478 29.1577 31.8572 29.1577C31.37 29.1577 30.9508 29.2753 30.5994 29.5107C30.2481 29.746 29.978 30.0923 29.7891 30.5497C29.6035 31.0071 29.5107 31.5672 29.5107 32.2301C29.5107 32.893 29.6035 33.4531 29.7891 33.9105C29.978 34.3679 30.2481 34.7143 30.5994 34.9496C30.9508 35.1849 31.37 35.3026 31.8572 35.3026C32.3478 35.3026 32.767 35.1849 33.1151 34.9496C33.4664 34.7143 33.7348 34.3679 33.9205 33.9105C34.1094 33.4531 34.2038 32.893 34.2038 32.2301Z" fill="#B3B3B3"/>
</svg>
