<svg width="48" height="48" viewBox="0 0 48 48" fill="none" xmlns="http://www.w3.org/2000/svg">
<path d="M6 24H18.5" stroke="#1E1E1E" stroke-width="3.2" stroke-linecap="round"/>
<path d="M22.6 19H19.9C19.1268 19 18.5 19.6268 18.5 20.4V27.6C18.5 28.3732 19.1268 29 19.9 29H22.6C23.3732 29 24 28.3732 24 27.6V20.4C24 19.6268 23.3732 19 22.6 19Z" fill="#1E1E1E"/>
<path d="M28.1 19H25.4C24.6268 19 24 19.6268 24 20.4V27.6C24 28.3732 24.6268 29 25.4 29H28.1C28.8732 29 29.5 28.3732 29.5 27.6V20.4C29.5 19.6268 28.8732 19 28.1 19Z" fill="#1E1E1E"/>
<path d="M29.5 24H42" stroke="#1E1E1E" stroke-width="3.2" stroke-linecap="round"/>
</svg>
