<svg width="48" height="48" viewBox="0 0 48 48" fill="none" xmlns="http://www.w3.org/2000/svg">
<path d="M6 24H15" stroke="#B3B3B3" stroke-width="3.2" stroke-linecap="round"/>
<path d="M19.1 19H16.4C15.6268 19 15 19.6268 15 20.4V27.6C15 28.3732 15.6268 29 16.4 29H19.1C19.8732 29 20.5 28.3732 20.5 27.6V20.4C20.5 19.6268 19.8732 19 19.1 19Z" fill="#B3B3B3"/>
<path d="M31.6 19H28.9C28.1268 19 27.5 19.6268 27.5 20.4V27.6C27.5 28.3732 28.1268 29 28.9 29H31.6C32.3732 29 33 28.3732 33 27.6V20.4C33 19.6268 32.3732 19 31.6 19Z" fill="#B3B3B3"/>
<path d="M33 24H42" stroke="#B3B3B3" stroke-width="3.2" stroke-linecap="round"/>
</svg>
