<svg width="41" height="42" viewBox="0 0 41 42" fill="none" xmlns="http://www.w3.org/2000/svg">
<path d="M7 18.0733H3.66667C3.20833 18.0733 2.81597 17.9101 2.48958 17.5837C2.16319 17.2573 2 16.865 2 16.4066V10.5733C2 9.53164 2.19792 8.55594 2.59375 7.64622C2.98958 6.7365 3.52431 5.94483 4.19792 5.27122C4.87153 4.59761 5.66319 4.06289 6.57292 3.66705C7.48264 3.27122 8.45833 3.0733 9.5 3.0733C10.5417 3.0733 11.5174 3.27122 12.4271 3.66705C13.3368 4.06289 14.1285 4.59761 14.8021 5.27122C15.4757 5.94483 16.0104 6.7365 16.4062 7.64622C16.8021 8.55594 17 9.53164 17 10.5733V16.4066C17 16.865 16.8368 17.2573 16.5104 17.5837C16.184 17.9101 15.7917 18.0733 15.3333 18.0733H12V11.4066H15.3333V10.5733C15.3333 8.9483 14.7674 7.56983 13.6354 6.43789C12.5035 5.30594 11.125 4.73997 9.5 4.73997C7.875 4.73997 6.49653 5.30594 5.36458 6.43789C4.23264 7.56983 3.66667 8.9483 3.66667 10.5733V11.4066H7V18.0733ZM5.33333 13.0733H3.66667V16.4066H5.33333V13.0733ZM13.6667 13.0733V16.4066H15.3333V13.0733H13.6667Z" fill="#B3B3B3"/>
<path d="M9.40521 31.6882C9.18224 31.471 9.17984 31.1134 9.39987 30.8932L30.8096 9.46365C31.0258 9.24728 31.3757 9.24493 31.5948 9.45837C31.8178 9.67563 31.8202 10.0332 31.6001 10.2534L10.1904 31.683C9.97422 31.8993 9.62427 31.9017 9.40521 31.6882Z" fill="#B3B3B3"/>
<path d="M32 28.5733C30.068 28.5733 28.5 30.1413 28.5 32.0733C28.5 34.0053 30.068 35.5733 32 35.5733C33.932 35.5733 35.5 34.0053 35.5 32.0733C35.5 30.1413 33.932 28.5733 32 28.5733Z" fill="#B3B3B3"/>
<path d="M32 25.0733C28.1325 25.0733 25 28.2058 25 32.0733C25 35.9408 28.1325 39.0733 32 39.0733C35.8675 39.0733 39 35.9408 39 32.0733C39 28.2058 35.8675 25.0733 32 25.0733ZM32 37.6733C28.906 37.6733 26.4 35.1673 26.4 32.0733C26.4 28.9793 28.906 26.4733 32 26.4733C35.094 26.4733 37.6 28.9793 37.6 32.0733C37.6 35.1673 35.094 37.6733 32 37.6733Z" fill="#B3B3B3"/>
</svg>
