<svg width="68" height="68" viewBox="0 0 68 68" fill="none" xmlns="http://www.w3.org/2000/svg">
<rect width="68" height="68" rx="8" fill="#FF8822"/>
<path d="M47.2 51.875L42.2958 46.9708C41.6236 47.3986 40.8215 47.8035 39.8896 48.1854C38.9576 48.5674 38.0944 48.85 37.3 49.0333V45.6417C37.6667 45.4889 38.1021 45.3132 38.6062 45.1146C39.1104 44.916 39.5306 44.725 39.8667 44.5417L34 38.675V47.2458L25.2 38.4458H18.6V29.6458H24.925L16.125 20.8L18.4625 18.4625L49.5375 49.5375L47.2 51.875ZM46.925 42.2958L44.5417 39.9125C45.0306 39.0264 45.4125 38.0868 45.6875 37.0937C45.9625 36.1007 46.1 35.0847 46.1 34.0458C46.1 31.3264 45.2826 28.9049 43.6479 26.7812C42.0132 24.6576 39.8972 23.1986 37.3 22.4042V19.0125C40.875 19.7153 43.7854 21.4875 46.0312 24.3292C48.2771 27.1708 49.4 30.4097 49.4 34.0458C49.4 35.5125 49.1861 36.941 48.7583 38.3312C48.3306 39.7215 47.7194 41.043 46.925 42.2958ZM41.2417 36.6125L37.3 32.6708V27.0792C38.675 27.6903 39.7521 28.6299 40.5312 29.8979C41.3104 31.166 41.7 32.5486 41.7 34.0458C41.7 34.4736 41.6694 34.9014 41.6083 35.3292C41.5472 35.7569 41.425 36.1847 41.2417 36.6125ZM34 29.3708L29.7375 25.1083L34 20.8458V29.3708ZM30.7 39.2708V35.375L27.4 32.075L26.575 32.9458H21.9V35.1458H26.575L30.7 39.2708Z" fill="black"/>
</svg>
