<svg width="24" height="24" viewBox="0 0 24 24" fill="none" xmlns="http://www.w3.org/2000/svg">
<path d="M19.4 21.4L15.9 17.9C15.5 18.1 15.05 18.3 14.55 18.5C14.05 18.7 13.6 18.85 13.2 18.95V16.55C13.45 16.4667 13.7083 16.375 13.975 16.275C14.2417 16.175 14.4917 16.0667 14.725 15.95L11 12.225V18.6L4.6 12.2H1.2V5.8H4.575L2.6 3.825L4.2 2.2L21 19L19.4 21.4ZM17.6 13.65L15.85 11.9C15.95 11.6 16 11.2917 16 10.975C16 9.9417 15.7333 9.0333 15.2 8.25C14.6667 7.4667 14 6.875 13.2 6.475V4.05C14.7667 4.5667 16.0417 5.4667 17.025 6.75C18.0083 8.0333 18.5 9.475 18.5 11.075C18.5 11.5417 18.425 11.9917 18.275 12.425C18.125 12.8583 17.9 13.2667 17.6 13.65ZM11 6.55L8.75 4.3L11 2.05V6.55ZM8.8 12.3V10.025L6.575 7.8H3.6V9.8H5.6L8.8 12.3Z" fill="#B3B3B3"/>
</svg>
