<svg width="96" height="96" viewBox="0 0 96 96" fill="none" xmlns="http://www.w3.org/2000/svg">
<g clip-path="url(#clip0_947_59)">
<path fill-rule="evenodd" clip-rule="evenodd" d="M66.8301 69.658L74.6699 77.5L73.5901 78.586C72.8101 79.367 72.8101 80.633 73.5901 81.414C73.5901 81.414 82.18 90.003 86.55 94.379C87.59 95.417 89 96 90.46 96C91.93 96 93.3399 95.414 94.3799 94.377C95.4199 93.339 96 91.932 96 90.464C96 88.996 95.4199 87.589 94.3799 86.551C89.9999 82.175 81.4099 73.586 81.4099 73.586C80.6299 72.805 79.3701 72.805 78.5901 73.586L77.5 74.672L69.6599 66.829C76.0799 59.73 80 50.319 80 40C80 17.923 62.08 0 40 0C17.92 0 0 17.923 0 40C0 62.077 17.92 80 40 80C50.32 80 59.7301 76.084 66.8301 69.658ZM28.03 43L30.73 50.299L38.03 53L30.73 55.701L28.03 63L25.3301 55.701L18.03 53L25.3301 50.299L28.03 43ZM46 17L51.1299 30.868L65 36L51.1299 41.132L46 55L40.8701 41.132L27 36L40.8701 30.868L46 17ZM30 22V20C30 18.896 29.1 18 28 18C26.9 18 26 18.896 26 20V22H24C22.9 22 22 22.896 22 24C22 25.104 22.9 26 24 26H26V28C26 29.104 26.9 30 28 30C29.1 30 30 29.104 30 28V26H32C33.1 26 34 25.104 34 24C34 22.896 33.1 22 32 22H30Z" fill="#B3B3B3"/>
</g>
<defs>
<clipPath id="clip0_947_59">
<rect width="96" height="96" fill="white"/>
</clipPath>
</defs>
</svg>
