<svg width="48" height="48" viewBox="0 0 48 48" fill="none" xmlns="http://www.w3.org/2000/svg">
<path d="M41.5 22.75H35.25C34.9672 22.7498 34.6928 22.8455 34.4714 23.0215C34.25 23.1974 34.0949 23.4432 34.0312 23.7188L31.75 33.625L27.735 7.56001C27.6901 7.26791 27.5432 7.00117 27.3203 6.80712C27.0974 6.61307 26.813 6.50426 26.5175 6.50001C26.2195 6.48783 25.9274 6.58569 25.6969 6.77493C25.4664 6.96418 25.3136 7.2316 25.2675 7.52626L21.3075 29.3238L17.7125 14.9463C17.6479 14.6874 17.5022 14.456 17.2967 14.2859C17.0912 14.1158 16.8367 14.0159 16.5703 14.0008C16.304 13.9857 16.0398 14.0562 15.8164 14.2021C15.593 14.3479 15.4221 14.5614 15.3287 14.8113L11.8838 24H6.5C6.16848 24 5.85054 24.1317 5.61612 24.3661C5.3817 24.6005 5.25 24.9185 5.25 25.25C5.25 25.5815 5.3817 25.8995 5.61612 26.1339C5.85054 26.3683 6.16848 26.5 6.5 26.5H12.75C13.0046 26.5002 13.2532 26.4226 13.4625 26.2776C13.6718 26.1326 13.8319 25.9272 13.9212 25.6888L16.2613 19.4475L20.2875 35.5538C20.3574 35.8303 20.5198 36.0746 20.7476 36.2462C20.9755 36.4177 21.2553 36.5062 21.5403 36.4968C21.8254 36.4875 22.0987 36.3809 22.3149 36.1948C22.5311 36.0087 22.6771 35.7543 22.7287 35.4738L26.3975 15.3025L30.265 40.44C30.309 40.7274 30.4517 40.9904 30.6687 41.1838C30.8857 41.3773 31.1633 41.4891 31.4537 41.5H31.5C31.7828 41.5002 32.0572 41.4045 32.2786 41.2285C32.5 41.0526 32.6551 40.8068 32.7188 40.5313L36.25 25.25H41.5C41.8315 25.25 42.1495 25.1183 42.3839 24.8839C42.6183 24.6495 42.75 24.3315 42.75 24C42.75 23.6685 42.6183 23.3505 42.3839 23.1161C42.1495 22.8817 41.8315 22.75 41.5 22.75Z" fill="#B3B3B3"/>
</svg>
