<svg width="512" height="512" viewBox="0 0 512 512" fill="none" xmlns="http://www.w3.org/2000/svg">
<rect x="3" y="3" width="506" height="506" rx="47" fill="#7777DD"/>
<rect x="3" y="3" width="506" height="506" rx="47" stroke="white" stroke-width="6"/>
<path d="M320.57 91H306.222C298.299 91 291.875 97.4237 291.875 105.348V148.391C291.875 156.315 298.299 162.739 306.222 162.739H320.57C328.494 162.739 334.917 156.315 334.917 148.391V105.348C334.917 97.4237 328.494 91 320.57 91Z" fill="white"/>
<path d="M205.782 220.13H191.434C183.51 220.13 177.087 226.554 177.087 234.478V277.522C177.087 285.446 183.51 291.87 191.434 291.87H205.782C213.706 291.87 220.129 285.446 220.129 277.522V234.478C220.129 226.554 213.706 220.13 205.782 220.13Z" fill="white"/>
<path d="M284.694 349.261H270.346C262.423 349.261 255.999 355.685 255.999 363.609V406.652C255.999 414.576 262.423 421 270.346 421H284.694C292.618 421 299.041 414.576 299.041 406.652V363.609C299.041 355.685 292.618 349.261 284.694 349.261Z" fill="white"/>
<path d="M413.804 112.521H349.24V141.217H413.804C415.706 141.217 417.531 140.461 418.876 139.116C420.222 137.771 420.977 135.946 420.977 134.043V119.695C420.977 117.793 420.222 115.968 418.876 114.623C417.531 113.277 415.706 112.521 413.804 112.521Z" fill="white"/>
<path d="M98.1737 141.217H277.517V112.522H98.1737C96.2711 112.522 94.4465 113.277 93.1011 114.623C91.7558 115.968 91 117.793 91 119.696V134.043C91 135.946 91.7558 137.771 93.1011 139.116C94.4465 140.461 96.2711 141.217 98.1737 141.217Z" fill="white"/>
<path d="M413.825 241.652H234.482V270.347H413.825C415.728 270.347 417.553 269.592 418.898 268.246C420.243 266.901 420.999 265.076 420.999 263.174V248.826C420.999 246.923 420.243 245.098 418.898 243.753C417.553 242.408 415.728 241.652 413.825 241.652Z" fill="white"/>
<path d="M98.1737 270.348H162.737V241.652H98.1737C96.2711 241.652 94.4465 242.408 93.1011 243.753C91.7558 245.099 91 246.923 91 248.826V263.174C91 265.076 91.7558 266.901 93.1011 268.247C94.4465 269.592 96.2711 270.348 98.1737 270.348Z" fill="white"/>
<path d="M91 377.956V392.304C91 394.206 91.7558 396.031 93.1011 397.376C94.4465 398.722 96.2711 399.478 98.1737 399.478H241.648V370.782H98.1737C96.2711 370.782 94.4465 371.538 93.1011 372.883C91.7558 374.229 91 376.053 91 377.956Z" fill="white"/>
<path d="M413.827 370.782H313.395V399.478H413.827C415.729 399.478 417.554 398.722 418.899 397.376C420.244 396.031 421 394.206 421 392.304V377.956C421 376.053 420.244 374.229 418.899 372.883C417.554 371.538 415.729 370.782 413.827 370.782Z" fill="white"/>
</svg>
